<svg width="22" height="20" viewBox="0 0 22 20" fill="none" xmlns="http://www.w3.org/2000/svg">
<path fill-rule="evenodd" clip-rule="evenodd" d="M20.1596 0.125817C16.5553 0.734518 13.6331 2.93934 10.1652 7.6672C9.70807 8.29054 9.27348 8.80038 9.19944 8.80025C9.12553 8.80012 8.90238 8.54099 8.70343 8.2242C8.28803 7.56264 7.1805 6.39214 6.20393 5.58274L5.53203 5.02574L4.59435 5.89798C4.07876 6.37763 3.60284 6.81764 3.53691 6.87581C3.46815 6.93658 4.02004 7.60281 4.83424 8.44174C6.31132 9.96375 7.84958 11.9365 8.75507 13.4701L9.28494 14.3676L10.4194 12.3737C11.7255 10.0783 12.9928 8.14154 14.1576 6.66138C15.9148 4.42857 18.5352 2.10792 20.8413 0.742421C21.4465 0.384042 21.9659 0.0681603 21.9954 0.0404332C22.0858 -0.044562 20.8199 0.0142609 20.1596 0.125817ZM1.99892 0.95776C1.3932 1.17504 0.705453 1.8173 0.329711 2.51657C0.0560807 3.02602 0.0506727 3.14911 0.0137165 9.75256C-0.0295492 17.4699 -0.0294205 17.4718 0.949337 18.4565C1.92797 19.4414 1.9299 19.4415 9.59965 19.398C17.0527 19.3557 16.6281 19.4076 17.6578 18.4151C18.5305 17.5738 18.5359 17.5221 18.4985 10.4866L18.465 4.21388L17.5958 5.03209L16.7266 5.85017V11.087C16.7266 16.6575 16.6899 17.025 16.1021 17.3415C15.9257 17.4365 13.7279 17.4814 9.25674 17.4814H2.67121L2.29482 17.1027L1.91844 16.724V10.0976C1.91844 5.59868 1.96312 3.38725 2.05751 3.20974C2.36835 2.6254 2.76997 2.58148 7.80541 2.58018L12.5417 2.57902L13.2673 1.95399C13.6665 1.61025 14.159 1.20445 14.3618 1.05234L14.7308 0.77559L8.61432 0.777274C3.74088 0.77844 2.39642 0.815108 1.99892 0.95776Z" fill="#F6541D" fill-opacity="0.23"/>
</svg>
